<svg width="64" height="64" viewBox="0 0 64 64" fill="none" xmlns="http://www.w3.org/2000/svg">
<g clip-path="url(#clip0)">
<path d="M59.1 9.1543V9.0543H59H5H4.9V9.1543V43.1403V43.2403H5H28.4352L27.7629 50.6872H24.4063C22.9546 50.6872 21.775 51.876 21.775 53.3361C21.775 54.7962 22.9546 55.9851 24.4063 55.9851H39.5937C41.0454 55.9851 42.2249 54.7962 42.2249 53.3361C42.2249 51.876 41.0454 50.6872 39.5937 50.6872H36.2371L35.5648 43.2403H59H59.1V43.1403V9.1543ZM39.5937 52.5865C40.003 52.5865 40.3375 52.9224 40.3375 53.3361C40.3375 53.75 40.0029 54.0858 39.5937 54.0858H24.4063C23.997 54.0858 23.6625 53.75 23.6625 53.3361C23.6625 52.9224 23.9971 52.5865 24.4063 52.5865H39.5937ZM33.6691 43.2402L34.3415 50.6871H29.6585L30.3308 43.2402H33.6691ZM57.2125 41.341H6.78748V10.9535H57.2125V41.341Z" fill="#444655" stroke="#444655" stroke-width="0.2"/>
<path d="M9.6543 38.7693V37.6924H20.0774V38.7693H9.6543Z" fill="#00A7E7" stroke="#444655"/>
<path d="M22.1162 38.7693V37.6924H23.1931V38.7693H22.1162Z" fill="#00A7E7" stroke="#444655"/>
<path d="M26.2695 38.7693V37.6924H27.3465V38.7693H26.2695Z" fill="#00A7E7" stroke="#444655"/>
<path d="M29.3848 38.7693V37.6924H30.4617V38.7693H29.3848Z" fill="#00A7E7" stroke="#444655"/>
<path d="M31.3204 30.2248L42.3848 19.2057L43.1478 19.9656L32.0835 30.9847L31.3204 30.2248Z" fill="#00A7E7" stroke="#444655"/>
<path d="M43.2791 25.2208L40.3086 28.1791L39.5455 27.4192L42.516 24.4608L43.2791 25.2208Z" fill="#00A7E7" stroke="#444655"/>
<path d="M44.6484 23.1403L52.7695 15.0523L53.5326 15.8123L45.4115 23.9002L44.6484 23.1403Z" fill="#00A7E7" stroke="#444655"/>
<path d="M30.4238 13.8465V12.7695H32.5392V13.8465H30.4238Z" fill="#00A7E7" stroke="#444655"/>
</g>
<defs>
<clipPath id="clip0">
<rect width="64" height="64" fill="white"/>
</clipPath>
</defs>
</svg>
