<svg width="64" height="64" viewBox="0 0 64 64" fill="none" xmlns="http://www.w3.org/2000/svg">
<g clip-path="url(#clip0)">
<path d="M58.5592 44.7235V16.8463C58.5592 13.851 56.091 11.4141 53.0574 11.4141H11.1793C8.14487 11.4141 5.67661 13.851 5.67661 16.8463V44.7235H2.94141V45.6237C2.94141 49.5948 6.21361 52.8258 10.2355 52.8258H54.0011C58.023 52.8258 61.2943 49.5949 61.2943 45.6237V44.7235H58.5592ZM7.50028 16.8463C7.50028 14.8436 9.15108 13.2146 11.1794 13.2146H53.0574C55.0858 13.2146 56.7356 14.8436 56.7356 16.8463V44.7235H7.50028V16.8463ZM36.4234 46.524C36.1073 47.0596 35.5259 47.4242 34.8542 47.4242H27.5592C26.8873 47.4242 26.3058 47.0596 25.9893 46.524H36.4234ZM54.0012 51.0252H10.2356C7.52969 51.0252 5.27613 49.0752 4.84075 46.5239H5.67685H24.0417C24.4492 48.0725 25.8645 49.2247 27.5592 49.2247H34.8542C36.5482 49.2247 37.9632 48.0725 38.3709 46.5239H58.5592H59.3953C58.9597 49.0752 56.7062 51.0252 54.0012 51.0252Z" fill="#444655"/>
<path d="M39.0995 24.0352L37.7646 22.708L25.0835 35.3162L26.4184 36.6434L39.0995 24.0352Z" fill="#444655"/>
<path d="M34.547 33.6162L35.8818 34.9434L39.219 31.6254L37.8841 30.2982L34.547 33.6162Z" fill="#444655"/>
<path d="M40.1944 27.9687L41.5293 29.2959L50.8733 20.0056L49.5384 18.6785L40.1944 27.9687Z" fill="#444655"/>
<path d="M33.0592 15.1787H27.4121V17.0611H33.0592V15.1787Z" fill="#444655"/>
<path d="M36.8238 15.1787H34.9414V17.0611H36.8238V15.1787Z" fill="#444655"/>
<path d="M19.8822 41.5312H9.5293V43.4136H19.8822V41.5312Z" fill="#444655"/>
<path d="M23.647 41.5312H21.7646V43.4136H23.647V41.5312Z" fill="#444655"/>
<path d="M27.4116 41.5312H25.5293V43.4136H27.4116V41.5312Z" fill="#444655"/>
</g>
<defs>
<clipPath id="clip0">
<rect width="64" height="64" fill="white"/>
</clipPath>
</defs>
</svg>
